# xmcd
#
# Track frame offsets:
#	150
#	14982
#	29285
#	48264
#	59222
#	76151
#	92096
#	110561
#	130399
#	149538
#	163967
#	179072
#
# Disc length: 2604 seconds
#
# Revision: 0
# Processed by: cddbd v1.5.1PL2 Copyright (c) Steve Scherf et al.
# Submitted via: audiograbber 1.83.01
#
DISCID=b70a2a0c
DTITLE=Mountain Heart - Wide Open
DYEAR=2006
DGENRE=Bluegrass
TTITLE0=Traveler's Prayer
TTITLE1=God and Everybody
TTITLE2=I Remember You
TTITLE3=Down In The Valley
TTITLE4=We Are
TTITLE5=Wide Open
TTITLE6=Here I Am
TTITLE7=Deadwood
TTITLE8=Miracle
TTITLE9=A Town That Isn't There
TTITLE10=I'm Just Here To Ride The Train
TTITLE11=Everybody But Me
EXTD=
EXTT0=
EXTT1=
EXTT2=
EXTT3=
EXTT4=
EXTT5=
EXTT6=
EXTT7=
EXTT8=
EXTT9=
EXTT10=
EXTT11=
PLAYORDER=
